<svg width="232" height="43" viewBox="0 0 232 43" fill="none" xmlns="http://www.w3.org/2000/svg">
<path d="M22.56 32.36C24.736 32.36 26.816 31.992 28.8 31.256C30.816 30.488 32.736 29.256 34.56 27.56L36.96 30.44C35.136 32.136 32.928 33.48 30.336 34.472C27.744 35.464 24.992 35.96 22.08 35.96C19.072 35.96 16.352 35.576 13.92 34.808C11.52 34.04 9.456 32.904 7.728 31.4C6.032 29.896 4.72 28.04 3.792 25.832C2.864 23.624 2.4 21.08 2.4 18.2C2.4 15.32 2.848 12.776 3.744 10.568C4.672 8.36 5.968 6.504 7.632 5C9.328 3.496 11.36 2.36 13.728 1.592C16.096 0.823998 18.72 0.439999 21.6 0.439999C24.512 0.439999 27.264 0.935999 29.856 1.928C32.448 2.92 34.656 4.264 36.48 5.96L34.08 8.84C32.256 7.144 30.336 5.928 28.32 5.192C26.336 4.424 24.256 4.04 22.08 4.04C20.352 4.04 18.736 4.328 17.232 4.904C15.728 5.448 14.432 6.296 13.344 7.448C12.256 8.6 11.392 10.072 10.752 11.864C10.144 13.624 9.84 15.736 9.84 18.2C9.84 20.664 10.144 22.792 10.752 24.584C11.392 26.344 12.272 27.8 13.392 28.952C14.544 30.104 15.888 30.968 17.424 31.544C18.992 32.088 20.704 32.36 22.56 32.36ZM48.2419 35H41.5219V10.52H48.2419V35ZM48.4819 4.04C48.4819 5 48.1459 5.848 47.4739 6.584C46.8339 7.288 45.9699 7.64 44.8819 7.64C43.7939 7.64 42.9139 7.288 42.2419 6.584C41.6019 5.848 41.2819 5 41.2819 4.04C41.2819 3.08 41.6019 2.248 42.2419 1.544C42.9139 0.807999 43.7939 0.439999 44.8819 0.439999C45.9379 0.439999 46.8019 0.807999 47.4739 1.544C48.1459 2.248 48.4819 3.08 48.4819 4.04ZM81.6038 35H74.8838V19.88C74.8838 17.576 74.3078 15.928 73.1558 14.936C72.0038 13.912 70.3398 13.4 68.1638 13.4H61.9238V35H55.2038V10.04H68.1638C72.7398 10.04 76.1158 10.872 78.2917 12.536C80.4998 14.168 81.6038 16.616 81.6038 19.88V35ZM102.463 32.6C104.031 32.6 105.487 32.328 106.831 31.784C108.207 31.24 109.551 30.472 110.863 29.48L112.783 32.36C112.175 32.904 111.455 33.4 110.623 33.848C109.823 34.296 108.943 34.68 107.983 35C107.055 35.288 106.079 35.512 105.055 35.672C104.031 35.864 103.007 35.96 101.983 35.96C99.7111 35.96 97.6311 35.656 95.7431 35.048C93.8871 34.472 92.3031 33.624 90.9911 32.504C89.6791 31.352 88.6551 29.944 87.9191 28.28C87.2151 26.616 86.8631 24.696 86.8631 22.52C86.8631 20.376 87.1991 18.472 87.8711 16.808C88.5751 15.112 89.5351 13.704 90.7511 12.584C91.9991 11.432 93.4711 10.568 95.1671 9.992C96.8631 9.384 98.7351 9.08 100.783 9.08C102.703 9.08 104.511 9.368 106.207 9.944C107.903 10.52 109.375 11.368 110.623 12.488C111.871 13.576 112.863 14.904 113.599 16.472C114.335 18.04 114.703 19.816 114.703 21.8V25.16H94.2071C94.5911 27.816 95.5031 29.72 96.9431 30.872C98.4151 32.024 100.255 32.6 102.463 32.6ZM100.783 12.2C99.8551 12.2 98.9911 12.376 98.1911 12.728C97.3911 13.08 96.6871 13.64 96.0791 14.408C95.5031 15.176 95.0231 16.168 94.6391 17.384C94.2871 18.6 94.0951 20.072 94.0631 21.8H107.503C107.503 20.136 107.311 18.696 106.927 17.48C106.543 16.264 106.031 15.272 105.391 14.504C104.783 13.704 104.063 13.128 103.231 12.776C102.431 12.392 101.615 12.2 100.783 12.2ZM120.219 10.04H145.179C149.755 10.04 153.131 10.872 155.307 12.536C157.515 14.168 158.619 16.616 158.619 19.88V35H151.899V19.88C151.899 17.576 151.323 15.928 150.171 14.936C149.019 13.912 147.355 13.4 145.179 13.4H142.779V35H136.059V13.4H126.939V35H120.219V10.04ZM172.039 35H165.319V10.52H172.039V35ZM172.279 4.04C172.279 5 171.943 5.848 171.271 6.584C170.631 7.288 169.767 7.64 168.679 7.64C167.591 7.64 166.711 7.288 166.039 6.584C165.399 5.848 165.079 5 165.079 4.04C165.079 3.08 165.399 2.248 166.039 1.544C166.711 0.807999 167.591 0.439999 168.679 0.439999C169.735 0.439999 170.599 0.807999 171.271 1.544C171.943 2.248 172.279 3.08 172.279 4.04ZM193.881 22.376L204.441 35H196.761L190.041 26.984L183.321 35H175.641L186.201 22.376L175.881 10.04H183.561L190.041 17.816L196.521 10.04H204.201L193.881 22.376Z" fill="black"/>
<circle cx="45" cy="4" r="4" fill="#6639DA"/>
<circle cx="169" cy="4" r="4" fill="#6639DA"/>
<path d="M208.064 12.4003C208.207 12.029 208.491 11.7294 208.854 11.5676C209.218 11.4058 209.631 11.395 210.002 11.5376L229.607 19.0642C229.978 19.2068 230.278 19.4911 230.44 19.8545C230.602 20.2179 230.612 20.6308 230.47 21.0022L222.943 40.607C222.801 40.9784 222.516 41.278 222.153 41.4398C221.789 41.6015 221.377 41.6123 221.005 41.4698L201.4 33.9432C201.029 33.8006 200.729 33.5163 200.568 33.1529C200.406 32.7894 200.395 32.3766 200.538 32.0052L208.064 12.4003ZM213.666 14.5508L210.44 22.9529L221.643 27.2538L224.868 18.8517L213.666 14.5508ZM220.567 30.0545L209.365 25.7536L206.139 34.1557L217.342 38.4566L220.567 30.0545ZM209.465 12.938L208.389 15.7387L211.19 16.8139L212.265 14.0132L209.465 12.938ZM210.652 18.2142L207.852 17.139L206.776 19.9397L209.577 21.0149L210.652 18.2142ZM206.239 21.34L205.164 24.1407L207.964 25.216L209.04 22.4153L206.239 21.34ZM207.427 26.6163L204.626 25.5411L203.551 28.3418L206.351 29.417L207.427 26.6163ZM203.013 29.7421L201.938 32.5428L204.739 33.618L205.814 30.8174L203.013 29.7421ZM229.069 20.4645L226.269 19.3893L225.193 22.19L227.994 23.2652L229.069 20.4645ZM224.656 23.5904L223.581 26.3911L226.381 27.4663L227.457 24.6656L224.656 23.5904ZM225.844 28.8666L223.043 27.7914L221.968 30.5921L224.768 31.6673L225.844 28.8666ZM221.43 31.9924L220.355 34.7931L223.156 35.8684L224.231 33.0677L221.43 31.9924ZM222.618 37.2687L219.817 36.1935L218.742 38.9942L221.543 40.0694L222.618 37.2687Z" fill="black"/>
</svg>
